<?xml version="1.0" encoding="iso-8859-1"?>
<svg version="1.1" id="Capa_1" xmlns="http://www.w3.org/2000/svg" xmlns:xlink="http://www.w3.org/1999/xlink" x="0px" y="0px"
	 viewBox="0 0 313.986 313.986" style="enable-background:new 0 0 313.986 313.986;" xml:space="preserve">
<path fill="white" d="M280.237,101.496c0-17.328-12.48-31.796-28.925-34.888c0.283-1.85,0.426-3.723,0.426-5.61
	c0-20.401-16.598-36.999-36.998-36.999c-5.318,0-10.491,1.123-15.251,3.284C191.969,10.934,175.356,0,156.993,0
	c-18.362,0-34.977,10.933-42.497,27.283c-4.76-2.162-9.931-3.284-15.25-3.284c-20.401,0-36.999,16.598-36.999,36.999
	c0,1.886,0.143,3.76,0.426,5.61c-16.443,3.092-28.924,17.56-28.924,34.888c0,17.293,12.124,31.596,28.518,34.813
	c-0.013,0.396-0.02,0.791-0.02,1.186c0,20.401,16.598,36.999,36.999,36.999c8.392,0,16.479-2.862,22.972-8.005
	c3.119,3.471,6.719,6.416,10.653,8.788v39.249c-33.958,4.385-55.621,17.191-55.621,33.215c0,15.564,20.526,28.127,52.915,32.848
	c-0.377,1.147-0.778,2.287-1.233,3.412c-3.134,7.763-8.12,14.805-14.42,20.365c-2.277,2.01-2.494,5.486-0.483,7.763
	c1.087,1.231,2.603,1.86,4.125,1.86c1.293,0,2.592-0.454,3.638-1.376c7.574-6.686,13.57-15.155,17.339-24.49
	c0.833-2.06,1.55-4.154,2.165-6.275c5.121,0.421,10.382,0.643,15.705,0.643c5.313,0,10.568-0.222,15.687-0.643
	c0.615,2.119,1.331,4.212,2.164,6.271c3.773,9.346,9.774,17.817,17.354,24.497c1.046,0.921,2.343,1.374,3.635,1.374
	c1.524,0,3.041-0.63,4.128-1.864c2.009-2.279,1.789-5.754-0.489-7.763c-6.302-5.554-11.291-12.595-14.428-20.366
	c-0.454-1.123-0.855-2.261-1.231-3.406c32.394-4.712,52.922-17.276,52.922-32.85c0-16.024-21.666-28.831-55.629-33.215v-39.247
	c3.936-2.372,7.537-5.317,10.657-8.79c6.492,5.144,14.58,8.006,22.972,8.006c20.4,0,36.998-16.598,36.998-36.999
	c0-0.395-0.007-0.79-0.02-1.186C268.113,133.092,280.237,118.789,280.237,101.496z M88.25,247.738
	c0-8.132,16.56-18.205,44.621-22.119v38.027c0,2.073-0.129,4.126-0.358,6.161C104.676,265.844,88.25,255.808,88.25,247.738z
	 M225.74,247.738c0,8.077-16.428,18.115-44.271,22.071c-0.229-2.035-0.358-4.089-0.358-6.163v-38.027
	C209.177,229.533,225.74,239.606,225.74,247.738z M170.534,270.985c-8.881,0.66-18.219,0.659-27.085,0
	c0.27-2.424,0.423-4.87,0.423-7.338V180.1c4.211,1.231,8.62,1.892,13.122,1.892c4.501,0,8.908-0.66,13.118-1.891v83.545
	C170.111,266.115,170.263,268.561,170.534,270.985z M245.49,125.973l-6.464,0.195l1.23,6.349c0.319,1.649,0.481,3.323,0.481,4.977
	c0,14.335-11.663,25.999-25.998,25.999c-7.433,0-14.527-3.199-19.467-8.775l-4.694-5.302l-3.975,5.861
	c-6.673,9.841-17.743,15.716-29.611,15.716c-11.869,0-22.938-5.875-29.61-15.715l-3.975-5.862l-4.695,5.303
	c-4.939,5.577-12.034,8.775-19.467,8.775c-14.336,0-25.999-11.663-25.999-25.999c0-1.653,0.162-3.328,0.481-4.977l1.23-6.349
	l-6.464-0.195c-13.315-0.401-23.746-11.153-23.746-24.478c0-13.508,10.99-24.499,24.475-24.498l8.134,0.084l-2.623-7.412
	c-0.986-2.79-1.487-5.708-1.487-8.672c0-14.335,11.663-25.999,25.999-25.999c5.391,0,10.564,1.641,14.963,4.746l6.307,4.45
	l2.147-7.413C127.062,21.602,141.179,11,156.993,11c15.814,0,29.931,10.602,34.328,25.782l2.148,7.413l6.306-4.45
	c4.4-3.104,9.575-4.746,14.965-4.746c14.335,0,25.998,11.663,25.998,25.999c0,2.966-0.5,5.884-1.486,8.672l-2.623,7.412l7.861-0.078
	l0.248-0.007c13.509,0,24.499,10.99,24.499,24.499C269.237,114.82,258.806,125.572,245.49,125.973z"/>

</svg>
